<mxfile host="app.diagrams.net" modified="2023-11-23T04:17:04.281Z" agent="Mozilla/5.0 (Windows NT 10.0; Win64; x64) AppleWebKit/537.36 (KHTML, like Gecko) Chrome/119.0.0.0 Safari/537.36" etag="m6CTh6xkBDaqbYTHOgQL" version="22.1.3" type="device">
  <diagram name="Trang-1" id="pPHw5bo-YjagF7NnJY1_">
    <mxGraphModel dx="636" dy="1497" grid="1" gridSize="10" guides="1" tooltips="1" connect="1" arrows="1" fold="1" page="1" pageScale="1" pageWidth="827" pageHeight="1169" math="0" shadow="0">
      <root>
        <mxCell id="0" />
        <mxCell id="1" parent="0" />
        <mxCell id="hLbu3QlfQWP0Bb9gRY2X-2" value="" style="rounded=0;whiteSpace=wrap;html=1;" parent="1" vertex="1">
          <mxGeometry x="1040" y="200" width="240" height="90" as="geometry" />
        </mxCell>
        <mxCell id="hLbu3QlfQWP0Bb9gRY2X-3" value="" style="rounded=0;whiteSpace=wrap;html=1;" parent="1" vertex="1">
          <mxGeometry x="1040" y="310" width="240" height="90" as="geometry" />
        </mxCell>
        <mxCell id="hLbu3QlfQWP0Bb9gRY2X-4" value="" style="endArrow=classic;startArrow=classic;html=1;rounded=0;" parent="1" edge="1">
          <mxGeometry width="50" height="50" relative="1" as="geometry">
            <mxPoint x="240" y="140" as="sourcePoint" />
            <mxPoint x="1280" y="140" as="targetPoint" />
          </mxGeometry>
        </mxCell>
        <mxCell id="hLbu3QlfQWP0Bb9gRY2X-5" value="" style="endArrow=classic;startArrow=classic;html=1;rounded=0;" parent="1" edge="1">
          <mxGeometry width="50" height="50" relative="1" as="geometry">
            <mxPoint x="180" y="400" as="sourcePoint" />
            <mxPoint x="180" y="190" as="targetPoint" />
          </mxGeometry>
        </mxCell>
        <mxCell id="hLbu3QlfQWP0Bb9gRY2X-6" value="&lt;font style=&quot;font-size: 20px;&quot;&gt;15 M&lt;/font&gt;" style="text;html=1;strokeColor=none;fillColor=none;align=center;verticalAlign=middle;whiteSpace=wrap;rounded=0;" parent="1" vertex="1">
          <mxGeometry x="740" y="100" width="60" height="30" as="geometry" />
        </mxCell>
        <mxCell id="hLbu3QlfQWP0Bb9gRY2X-7" value="&lt;font style=&quot;font-size: 20px;&quot;&gt;10 M&lt;/font&gt;" style="text;html=1;strokeColor=none;fillColor=none;align=center;verticalAlign=middle;whiteSpace=wrap;rounded=0;rotation=0;" parent="1" vertex="1">
          <mxGeometry x="110" y="285" width="60" height="30" as="geometry" />
        </mxCell>
        <mxCell id="hLbu3QlfQWP0Bb9gRY2X-8" value="&lt;font style=&quot;font-size: 15px;&quot;&gt;Phòng quay video&lt;/font&gt;" style="text;html=1;strokeColor=none;fillColor=none;align=center;verticalAlign=middle;whiteSpace=wrap;rounded=0;" parent="1" vertex="1">
          <mxGeometry x="195" y="200" width="270" height="30" as="geometry" />
        </mxCell>
        <mxCell id="hLbu3QlfQWP0Bb9gRY2X-10" value="&lt;font style=&quot;font-size: 15px;&quot;&gt;Thang máy&lt;/font&gt;" style="text;html=1;strokeColor=none;fillColor=none;align=center;verticalAlign=middle;whiteSpace=wrap;rounded=0;" parent="1" vertex="1">
          <mxGeometry x="1060" y="230" width="200" height="30" as="geometry" />
        </mxCell>
        <mxCell id="hLbu3QlfQWP0Bb9gRY2X-11" value="&lt;font style=&quot;font-size: 15px;&quot;&gt;WC&lt;/font&gt;" style="text;html=1;strokeColor=none;fillColor=none;align=center;verticalAlign=middle;whiteSpace=wrap;rounded=0;" parent="1" vertex="1">
          <mxGeometry x="1060" y="340" width="200" height="30" as="geometry" />
        </mxCell>
        <mxCell id="hLbu3QlfQWP0Bb9gRY2X-14" value="&lt;font style=&quot;font-size: 20px;&quot;&gt;Tầng 1&lt;/font&gt;" style="text;html=1;strokeColor=#6c8ebf;fillColor=#dae8fc;align=center;verticalAlign=middle;whiteSpace=wrap;rounded=0;" parent="1" vertex="1">
          <mxGeometry x="160" y="30" width="100" height="50" as="geometry" />
        </mxCell>
        <mxCell id="hLbu3QlfQWP0Bb9gRY2X-15" value="" style="endArrow=classic;startArrow=classic;html=1;rounded=0;strokeColor=#FFFFFF;" parent="1" edge="1">
          <mxGeometry width="50" height="50" relative="1" as="geometry">
            <mxPoint x="770" as="sourcePoint" />
            <mxPoint x="770" y="40" as="targetPoint" />
          </mxGeometry>
        </mxCell>
        <mxCell id="hLbu3QlfQWP0Bb9gRY2X-16" value="" style="endArrow=classic;startArrow=classic;html=1;rounded=0;strokeColor=#FFFFFF;" parent="1" edge="1">
          <mxGeometry width="50" height="50" relative="1" as="geometry">
            <mxPoint x="790" y="480" as="sourcePoint" />
            <mxPoint x="790" y="520" as="targetPoint" />
          </mxGeometry>
        </mxCell>
        <mxCell id="hLbu3QlfQWP0Bb9gRY2X-17" value="" style="endArrow=classic;startArrow=classic;html=1;rounded=0;strokeColor=#FFFFFF;" parent="1" edge="1">
          <mxGeometry width="50" height="50" relative="1" as="geometry">
            <mxPoint x="90" y="330" as="sourcePoint" />
            <mxPoint x="120" y="330" as="targetPoint" />
          </mxGeometry>
        </mxCell>
        <mxCell id="hLbu3QlfQWP0Bb9gRY2X-18" value="" style="endArrow=classic;startArrow=classic;html=1;rounded=0;strokeColor=#FFFFFF;" parent="1" edge="1">
          <mxGeometry width="50" height="50" relative="1" as="geometry">
            <mxPoint x="1300" y="310" as="sourcePoint" />
            <mxPoint x="1320" y="310" as="targetPoint" />
          </mxGeometry>
        </mxCell>
        <mxCell id="cIawQBJBCyzUcV7PF4F9-18" value="" style="rounded=0;whiteSpace=wrap;html=1;" parent="1" vertex="1">
          <mxGeometry x="240" y="190" width="775" height="210" as="geometry" />
        </mxCell>
        <mxCell id="cIawQBJBCyzUcV7PF4F9-31" style="rounded=0;orthogonalLoop=1;jettySize=auto;html=1;entryX=0.25;entryY=1;entryDx=0;entryDy=0;endArrow=none;endFill=0;dashed=1;strokeWidth=1;" parent="1" source="cIawQBJBCyzUcV7PF4F9-21" target="cIawQBJBCyzUcV7PF4F9-26" edge="1">
          <mxGeometry relative="1" as="geometry" />
        </mxCell>
        <mxCell id="cIawQBJBCyzUcV7PF4F9-21" value="" style="verticalLabelPosition=bottom;sketch=0;aspect=fixed;html=1;verticalAlign=top;strokeColor=none;align=center;outlineConnect=0;shape=mxgraph.citrix.laptop_2;" parent="1" vertex="1">
          <mxGeometry x="280" y="307.5" width="73.76" height="55" as="geometry" />
        </mxCell>
        <mxCell id="Lshlf3ugooddYHqgElno-3" style="edgeStyle=orthogonalEdgeStyle;rounded=0;orthogonalLoop=1;jettySize=auto;html=1;endArrow=none;endFill=0;" parent="1" source="cIawQBJBCyzUcV7PF4F9-22" edge="1">
          <mxGeometry relative="1" as="geometry">
            <mxPoint x="495" y="390" as="targetPoint" />
          </mxGeometry>
        </mxCell>
        <mxCell id="cIawQBJBCyzUcV7PF4F9-22" value="" style="fontColor=#0066CC;verticalAlign=top;verticalLabelPosition=bottom;labelPosition=center;align=center;html=1;outlineConnect=0;fillColor=#CCCCCC;strokeColor=#6881B3;gradientColor=none;gradientDirection=north;strokeWidth=2;shape=mxgraph.networks.pc;" parent="1" vertex="1">
          <mxGeometry x="460" y="310" width="70" height="50" as="geometry" />
        </mxCell>
        <mxCell id="Lshlf3ugooddYHqgElno-1" style="edgeStyle=orthogonalEdgeStyle;rounded=0;orthogonalLoop=1;jettySize=auto;html=1;endArrow=none;endFill=0;" parent="1" edge="1">
          <mxGeometry relative="1" as="geometry">
            <mxPoint x="980" y="390" as="targetPoint" />
            <Array as="points">
              <mxPoint x="250" y="200" />
              <mxPoint x="250" y="390" />
              <mxPoint x="1016" y="390" />
            </Array>
            <mxPoint x="1003.4808906556914" y="390.00011609037574" as="sourcePoint" />
          </mxGeometry>
        </mxCell>
        <mxCell id="SlgnQgIzCRDtR6L_MIDv-8" style="edgeStyle=orthogonalEdgeStyle;rounded=0;orthogonalLoop=1;jettySize=auto;html=1;endArrow=none;endFill=0;" edge="1" parent="1" source="cIawQBJBCyzUcV7PF4F9-23">
          <mxGeometry relative="1" as="geometry">
            <mxPoint x="250" y="200" as="targetPoint" />
            <Array as="points">
              <mxPoint x="590" y="200" />
            </Array>
          </mxGeometry>
        </mxCell>
        <mxCell id="cIawQBJBCyzUcV7PF4F9-23" value="" style="sketch=0;points=[[0.015,0.015,0],[0.985,0.015,0],[0.985,0.985,0],[0.015,0.985,0],[0.25,0,0],[0.5,0,0],[0.75,0,0],[1,0.25,0],[1,0.5,0],[1,0.75,0],[0.75,1,0],[0.5,1,0],[0.25,1,0],[0,0.75,0],[0,0.5,0],[0,0.25,0]];verticalLabelPosition=bottom;html=1;verticalAlign=top;aspect=fixed;align=center;pointerEvents=1;shape=mxgraph.cisco19.rect;prIcon=l2_switch;fillColor=#FAFAFA;strokeColor=#005073;" parent="1" vertex="1">
          <mxGeometry x="570" y="210" width="40" height="40" as="geometry" />
        </mxCell>
        <mxCell id="Lshlf3ugooddYHqgElno-2" style="edgeStyle=orthogonalEdgeStyle;rounded=0;orthogonalLoop=1;jettySize=auto;html=1;endArrow=none;endFill=0;" parent="1" source="cIawQBJBCyzUcV7PF4F9-26" edge="1">
          <mxGeometry relative="1" as="geometry">
            <mxPoint x="430" y="200" as="targetPoint" />
          </mxGeometry>
        </mxCell>
        <mxCell id="cIawQBJBCyzUcV7PF4F9-26" value="" style="image;html=1;image=img/lib/clip_art/networking/Wireless_Router_N_128x128.png" parent="1" vertex="1">
          <mxGeometry x="405" y="225" width="50" height="55" as="geometry" />
        </mxCell>
        <mxCell id="SlgnQgIzCRDtR6L_MIDv-1" style="edgeStyle=orthogonalEdgeStyle;rounded=0;orthogonalLoop=1;jettySize=auto;html=1;endArrow=none;endFill=0;" edge="1" parent="1" source="cIawQBJBCyzUcV7PF4F9-35" target="DrewuXuYXTR60I6PQuaO-9">
          <mxGeometry relative="1" as="geometry" />
        </mxCell>
        <mxCell id="cIawQBJBCyzUcV7PF4F9-35" value="" style="ellipse;whiteSpace=wrap;html=1;aspect=fixed;fillColor=#f8cecc;strokeColor=#b85450;" parent="1" vertex="1">
          <mxGeometry x="1010" y="150" width="25" height="25" as="geometry" />
        </mxCell>
        <mxCell id="cIawQBJBCyzUcV7PF4F9-42" value="" style="image;html=1;image=img/lib/clip_art/networking/Wireless_Router_N_128x128.png" parent="1" vertex="1">
          <mxGeometry x="410" y="447.5" width="50" height="55" as="geometry" />
        </mxCell>
        <mxCell id="cIawQBJBCyzUcV7PF4F9-43" value="&lt;span style=&quot;font-size: 15px;&quot;&gt;Wireless router&lt;/span&gt;" style="text;html=1;strokeColor=none;fillColor=none;align=center;verticalAlign=middle;whiteSpace=wrap;rounded=0;" parent="1" vertex="1">
          <mxGeometry x="477" y="472.5" width="143" height="30" as="geometry" />
        </mxCell>
        <mxCell id="cIawQBJBCyzUcV7PF4F9-44" value="" style="fontColor=#0066CC;verticalAlign=top;verticalLabelPosition=bottom;labelPosition=center;align=center;html=1;outlineConnect=0;fillColor=#CCCCCC;strokeColor=#6881B3;gradientColor=none;gradientDirection=north;strokeWidth=2;shape=mxgraph.networks.pc;" parent="1" vertex="1">
          <mxGeometry x="395" y="535" width="70" height="50" as="geometry" />
        </mxCell>
        <mxCell id="cIawQBJBCyzUcV7PF4F9-45" value="&lt;span style=&quot;font-size: 15px;&quot;&gt;Máy tính&lt;/span&gt;" style="text;html=1;strokeColor=none;fillColor=none;align=center;verticalAlign=middle;whiteSpace=wrap;rounded=0;" parent="1" vertex="1">
          <mxGeometry x="477" y="545" width="103" height="30" as="geometry" />
        </mxCell>
        <mxCell id="cIawQBJBCyzUcV7PF4F9-46" value="" style="verticalLabelPosition=bottom;sketch=0;aspect=fixed;html=1;verticalAlign=top;strokeColor=none;align=center;outlineConnect=0;shape=mxgraph.citrix.laptop_2;" parent="1" vertex="1">
          <mxGeometry x="670" y="447.5" width="73.76" height="55" as="geometry" />
        </mxCell>
        <mxCell id="cIawQBJBCyzUcV7PF4F9-47" value="&lt;span style=&quot;font-size: 15px;&quot;&gt;Laptop&lt;/span&gt;" style="text;html=1;strokeColor=none;fillColor=none;align=center;verticalAlign=middle;whiteSpace=wrap;rounded=0;" parent="1" vertex="1">
          <mxGeometry x="757.5" y="472.5" width="90" height="30" as="geometry" />
        </mxCell>
        <mxCell id="cIawQBJBCyzUcV7PF4F9-48" value="" style="sketch=0;points=[[0.015,0.015,0],[0.985,0.015,0],[0.985,0.985,0],[0.015,0.985,0],[0.25,0,0],[0.5,0,0],[0.75,0,0],[1,0.25,0],[1,0.5,0],[1,0.75,0],[0.75,1,0],[0.5,1,0],[0.25,1,0],[0,0.75,0],[0,0.5,0],[0,0.25,0]];verticalLabelPosition=bottom;html=1;verticalAlign=top;aspect=fixed;align=center;pointerEvents=1;shape=mxgraph.cisco19.rect;prIcon=l2_switch;fillColor=#FAFAFA;strokeColor=#005073;" parent="1" vertex="1">
          <mxGeometry x="700" y="540" width="40" height="40" as="geometry" />
        </mxCell>
        <mxCell id="cIawQBJBCyzUcV7PF4F9-49" value="&lt;span style=&quot;font-size: 15px;&quot;&gt;Switch layer 2&lt;/span&gt;" style="text;html=1;strokeColor=none;fillColor=none;align=center;verticalAlign=middle;whiteSpace=wrap;rounded=0;" parent="1" vertex="1">
          <mxGeometry x="770" y="545" width="100" height="30" as="geometry" />
        </mxCell>
        <mxCell id="cIawQBJBCyzUcV7PF4F9-55" value="" style="ellipse;whiteSpace=wrap;html=1;aspect=fixed;fillColor=#f8cecc;strokeColor=#b85450;" parent="1" vertex="1">
          <mxGeometry x="930" y="472.5" width="25" height="25" as="geometry" />
        </mxCell>
        <mxCell id="cIawQBJBCyzUcV7PF4F9-56" value="&lt;span style=&quot;font-size: 15px;&quot;&gt;Đường ống kỹ thuật&lt;/span&gt;" style="text;html=1;strokeColor=none;fillColor=none;align=center;verticalAlign=middle;whiteSpace=wrap;rounded=0;" parent="1" vertex="1">
          <mxGeometry x="1015" y="467.5" width="137.5" height="30" as="geometry" />
        </mxCell>
        <mxCell id="2V2SgEBOIssQ7s5CNbEn-3" style="rounded=0;orthogonalLoop=1;jettySize=auto;html=1;entryX=0;entryY=0.75;entryDx=0;entryDy=0;endArrow=none;endFill=0;dashed=1;" parent="1" source="2V2SgEBOIssQ7s5CNbEn-2" target="cIawQBJBCyzUcV7PF4F9-26" edge="1">
          <mxGeometry relative="1" as="geometry" />
        </mxCell>
        <mxCell id="2V2SgEBOIssQ7s5CNbEn-2" value="" style="image;html=1;image=img/lib/clip_art/networking/Ip_Camera_128x128.png" parent="1" vertex="1">
          <mxGeometry x="291.88" y="245" width="50" height="45" as="geometry" />
        </mxCell>
        <mxCell id="2V2SgEBOIssQ7s5CNbEn-5" value="" style="image;html=1;image=img/lib/clip_art/networking/Ip_Camera_128x128.png" parent="1" vertex="1">
          <mxGeometry x="917.5" y="540" width="50" height="45" as="geometry" />
        </mxCell>
        <mxCell id="2V2SgEBOIssQ7s5CNbEn-6" value="&lt;span style=&quot;font-size: 15px;&quot;&gt;Camera&lt;/span&gt;" style="text;html=1;strokeColor=none;fillColor=none;align=center;verticalAlign=middle;whiteSpace=wrap;rounded=0;" parent="1" vertex="1">
          <mxGeometry x="1020" y="545" width="60" height="30" as="geometry" />
        </mxCell>
        <mxCell id="DmzgsT5T-qE1tKC3L-aG-1" value="&lt;b&gt;&lt;font style=&quot;font-size: 16px;&quot;&gt;IT&lt;/font&gt;&lt;/b&gt;" style="text;html=1;strokeColor=#d6b656;fillColor=#fff2cc;align=center;verticalAlign=middle;whiteSpace=wrap;rounded=0;" parent="1" vertex="1">
          <mxGeometry x="550" y="330" width="90" height="40" as="geometry" />
        </mxCell>
        <mxCell id="DrewuXuYXTR60I6PQuaO-10" style="edgeStyle=orthogonalEdgeStyle;rounded=0;orthogonalLoop=1;jettySize=auto;html=1;endArrow=none;endFill=0;" parent="1" source="DrewuXuYXTR60I6PQuaO-2" target="DrewuXuYXTR60I6PQuaO-9" edge="1">
          <mxGeometry relative="1" as="geometry" />
        </mxCell>
        <mxCell id="DrewuXuYXTR60I6PQuaO-2" value="" style="sketch=0;points=[[0.5,0,0],[1,0.5,0],[0.5,1,0],[0,0.5,0],[0.145,0.145,0],[0.8555,0.145,0],[0.855,0.8555,0],[0.145,0.855,0]];verticalLabelPosition=bottom;html=1;verticalAlign=top;aspect=fixed;align=center;pointerEvents=1;shape=mxgraph.cisco19.rect;prIcon=router;fillColor=#FAFAFA;strokeColor=#005073;" parent="1" vertex="1">
          <mxGeometry x="660" y="197.5" width="65" height="65" as="geometry" />
        </mxCell>
        <mxCell id="SlgnQgIzCRDtR6L_MIDv-3" style="edgeStyle=orthogonalEdgeStyle;rounded=0;orthogonalLoop=1;jettySize=auto;html=1;endArrow=none;endFill=0;" edge="1" parent="1" source="DrewuXuYXTR60I6PQuaO-9">
          <mxGeometry relative="1" as="geometry">
            <mxPoint x="1000" y="390" as="targetPoint" />
          </mxGeometry>
        </mxCell>
        <mxCell id="DrewuXuYXTR60I6PQuaO-9" value="" style="image;html=1;image=img/lib/clip_art/networking/Firewall_02_128x128.png" parent="1" vertex="1">
          <mxGeometry x="847.5" y="200" width="65" height="60" as="geometry" />
        </mxCell>
        <mxCell id="DrewuXuYXTR60I6PQuaO-16" style="edgeStyle=orthogonalEdgeStyle;rounded=0;orthogonalLoop=1;jettySize=auto;html=1;entryX=0;entryY=0.5;entryDx=0;entryDy=0;endArrow=none;endFill=0;" parent="1" source="DrewuXuYXTR60I6PQuaO-12" target="DrewuXuYXTR60I6PQuaO-15" edge="1">
          <mxGeometry relative="1" as="geometry">
            <Array as="points">
              <mxPoint x="802" y="345" />
            </Array>
          </mxGeometry>
        </mxCell>
        <mxCell id="DrewuXuYXTR60I6PQuaO-12" value="" style="sketch=0;points=[[0.015,0.015,0],[0.985,0.015,0],[0.985,0.985,0],[0.015,0.985,0],[0.25,0,0],[0.5,0,0],[0.75,0,0],[1,0.25,0],[1,0.5,0],[1,0.75,0],[0.75,1,0],[0.5,1,0],[0.25,1,0],[0,0.75,0],[0,0.5,0],[0,0.25,0]];verticalLabelPosition=bottom;html=1;verticalAlign=top;aspect=fixed;align=center;pointerEvents=1;shape=mxgraph.cisco19.rect;prIcon=l2_switch;fillColor=#FAFAFA;strokeColor=#005073;" parent="1" vertex="1">
          <mxGeometry x="782.5" y="285" width="40" height="40" as="geometry" />
        </mxCell>
        <mxCell id="DrewuXuYXTR60I6PQuaO-13" style="edgeStyle=orthogonalEdgeStyle;rounded=0;orthogonalLoop=1;jettySize=auto;html=1;entryX=0.5;entryY=0;entryDx=0;entryDy=0;entryPerimeter=0;endArrow=none;endFill=0;exitX=0;exitY=0.5;exitDx=0;exitDy=0;" parent="1" source="DrewuXuYXTR60I6PQuaO-9" target="DrewuXuYXTR60I6PQuaO-12" edge="1">
          <mxGeometry relative="1" as="geometry" />
        </mxCell>
        <mxCell id="DrewuXuYXTR60I6PQuaO-15" value="" style="image;aspect=fixed;perimeter=ellipsePerimeter;html=1;align=center;shadow=0;dashed=0;spacingTop=3;image=img/lib/active_directory/server_farm.svg;" parent="1" vertex="1">
          <mxGeometry x="895" y="300" width="85" height="85" as="geometry" />
        </mxCell>
        <mxCell id="DrewuXuYXTR60I6PQuaO-17" value="" style="endArrow=none;html=1;rounded=0;" parent="1" edge="1">
          <mxGeometry width="50" height="50" relative="1" as="geometry">
            <mxPoint x="650" y="390" as="sourcePoint" />
            <mxPoint x="650" y="190" as="targetPoint" />
          </mxGeometry>
        </mxCell>
        <mxCell id="DrewuXuYXTR60I6PQuaO-18" value="&lt;b&gt;&lt;font style=&quot;font-size: 16px;&quot;&gt;Data Center&lt;/font&gt;&lt;/b&gt;" style="text;html=1;strokeColor=#d6b656;fillColor=#fff2cc;align=center;verticalAlign=middle;whiteSpace=wrap;rounded=0;" parent="1" vertex="1">
          <mxGeometry x="660" y="330" width="108.12" height="40" as="geometry" />
        </mxCell>
        <mxCell id="DrewuXuYXTR60I6PQuaO-19" value="&lt;b&gt;INTERNET&lt;/b&gt;" style="ellipse;shape=cloud;whiteSpace=wrap;html=1;fillColor=#dae8fc;strokeColor=#6c8ebf;" parent="1" vertex="1">
          <mxGeometry x="568" y="20" width="120" height="80" as="geometry" />
        </mxCell>
        <mxCell id="DrewuXuYXTR60I6PQuaO-20" style="edgeStyle=orthogonalEdgeStyle;rounded=0;orthogonalLoop=1;jettySize=auto;html=1;entryX=0.37;entryY=0.018;entryDx=0;entryDy=0;entryPerimeter=0;endArrow=none;endFill=0;strokeColor=#FF0000;" parent="1" source="DrewuXuYXTR60I6PQuaO-19" target="DrewuXuYXTR60I6PQuaO-2" edge="1">
          <mxGeometry relative="1" as="geometry" />
        </mxCell>
        <mxCell id="DrewuXuYXTR60I6PQuaO-21" value="" style="image;html=1;image=img/lib/clip_art/networking/Firewall_02_128x128.png" parent="1" vertex="1">
          <mxGeometry x="397.5" y="610" width="65" height="60" as="geometry" />
        </mxCell>
        <mxCell id="DrewuXuYXTR60I6PQuaO-22" value="" style="sketch=0;points=[[0.5,0,0],[1,0.5,0],[0.5,1,0],[0,0.5,0],[0.145,0.145,0],[0.8555,0.145,0],[0.855,0.8555,0],[0.145,0.855,0]];verticalLabelPosition=bottom;html=1;verticalAlign=top;aspect=fixed;align=center;pointerEvents=1;shape=mxgraph.cisco19.rect;prIcon=router;fillColor=#FAFAFA;strokeColor=#005073;" parent="1" vertex="1">
          <mxGeometry x="681.56" y="610" width="65" height="65" as="geometry" />
        </mxCell>
        <mxCell id="DrewuXuYXTR60I6PQuaO-23" value="" style="image;aspect=fixed;perimeter=ellipsePerimeter;html=1;align=center;shadow=0;dashed=0;spacingTop=3;image=img/lib/active_directory/server_farm.svg;" parent="1" vertex="1">
          <mxGeometry x="900" y="610" width="85" height="85" as="geometry" />
        </mxCell>
        <mxCell id="DrewuXuYXTR60I6PQuaO-25" value="&lt;span style=&quot;font-size: 15px;&quot;&gt;Firewall&lt;/span&gt;" style="text;html=1;strokeColor=none;fillColor=none;align=center;verticalAlign=middle;whiteSpace=wrap;rounded=0;" parent="1" vertex="1">
          <mxGeometry x="467" y="625" width="103" height="30" as="geometry" />
        </mxCell>
        <mxCell id="DrewuXuYXTR60I6PQuaO-27" value="&lt;span style=&quot;font-size: 15px;&quot;&gt;Router&lt;/span&gt;" style="text;html=1;strokeColor=none;fillColor=none;align=center;verticalAlign=middle;whiteSpace=wrap;rounded=0;" parent="1" vertex="1">
          <mxGeometry x="751" y="625" width="103" height="30" as="geometry" />
        </mxCell>
        <mxCell id="DrewuXuYXTR60I6PQuaO-28" value="&lt;span style=&quot;font-size: 15px;&quot;&gt;Servers&lt;/span&gt;" style="text;html=1;strokeColor=none;fillColor=none;align=center;verticalAlign=middle;whiteSpace=wrap;rounded=0;" parent="1" vertex="1">
          <mxGeometry x="998.5" y="627.5" width="103" height="30" as="geometry" />
        </mxCell>
        <mxCell id="DrewuXuYXTR60I6PQuaO-29" value="" style="endArrow=none;html=1;rounded=0;strokeColor=#FFFFFF;" parent="1" edge="1">
          <mxGeometry width="50" height="50" relative="1" as="geometry">
            <mxPoint x="660" y="780" as="sourcePoint" />
            <mxPoint x="720" y="750" as="targetPoint" />
          </mxGeometry>
        </mxCell>
      </root>
    </mxGraphModel>
  </diagram>
</mxfile>
